<?xml version="1.0" standalone="no"?>
<!DOCTYPE svg PUBLIC "-//W3C//DTD SVG 20010904//EN" "http://www.w3.org/TR/2001/REC-SVG-20010904/DTD/svg10.dtd">
<svg xmlns="http://www.w3.org/2000/svg" version="1.0" width="100%" height="100%" viewBox="0 0 695.000000 747.000000" preserveAspectRatio="xMidYMid meet">
<metadata>
Created by potrace 1.16, written by Peter Selinger 2001-2019
<meta name="Producer" content="Online-Convert"/></metadata>
<g transform="translate(0.000000,747.000000) scale(0.100000,-0.100000)" stroke="none">
<path  d="M0 3735 l0 -3735 3475 0 3475 0 0 3735 0 3735 -3475 0 -3475 0 0 -3735z m3990 3460 c111 -51 143 -61 229 -74 83 -13 103 -28 140 -103 53 -106 96 -138 183 -138 73 0 116 -25 150 -86 15 -27 28 -52 28 -55 0 -4 -14 -12 -32 -20 -17 -7 -58 -31 -91 -52 -64 -43 -77 -45 -227 -38 l-75 4 -8 -74 c-4 -41 -6 -94 -5 -119 3 -44 4 -45 43 -52 60 -10 235 -9 275 2 20 5 66 30 103 54 91 60 130 72 159 52 22 -15 23 -23 23 -124 l0 -107 48 -94 c72 -139 86 -224 61 -367 l-6 -31 -91 -6 c-106 -5 -157 -24 -259 -94 l-67 -46 -36 27 c-51 39 -135 76 -174 76 -36 0 -151 -27 -164 -39 -7 -7 40 -209 53 -224 3 -4 29 -2 57 4 50 12 50 12 109 -30 107 -75 203 -69 343 24 83 55 131 69 191 57 48 -10 49 -35 6 -106 -40 -66 -50 -123 -38 -218 13 -108 7 -134 -44 -169 -53 -36 -84 -92 -84 -152 0 -40 -3 -45 -35 -60 l-34 -16 -43 72 c-45 77 -158 310 -158 326 0 22 -23 20 -86 -9 -87 -39 -187 -70 -229 -70 -29 0 -36 5 -54 43 -28 59 -63 89 -156 139 -121 65 -132 111 -49 212 l43 54 -91 77 -91 78 -34 -39 c-93 -108 -123 -174 -123 -275 0 -125 74 -237 201 -304 83 -43 83 -44 -26 -96 -50 -24 -73 -29 -134 -29 -41 0 -103 5 -138 11 l-63 11 0 494 c0 272 3 494 6 494 3 0 31 -7 62 -16 37 -11 77 -15 122 -12 68 5 88 14 273 117 79 45 101 39 117 -31 22 -92 15 -89 132 -60 57 14 108 29 115 34 9 7 7 27 -8 80 -25 91 -38 114 -91 164 -64 62 -115 84 -192 84 -79 0 -128 -18 -251 -89 -82 -48 -94 -52 -140 -48 -29 2 -70 15 -97 31 l-48 28 0 304 c0 284 8 394 29 394 30 0 223 -32 249 -41 68 -23 81 -112 32 -209 l-30 -60 106 -50 c79 -37 110 -47 120 -39 26 22 77 163 81 229 9 114 -50 243 -139 309 -50 37 -131 69 -201 79 l-52 8 28 18 c70 47 145 42 277 -19z m-997 30 c50 -26 135 -105 171 -159 19 -29 44 -80 55 -114 20 -59 21 -80 21 -674 0 -612 0 -613 -20 -588 -11 14 -52 72 -92 130 -97 140 -186 230 -260 260 -45 19 -58 28 -58 45 0 37 -59 142 -102 180 -35 32 -100 68 -161 89 -24 8 -35 41 -43 129 -4 41 -10 81 -15 88 -6 10 -29 11 -114 2 -59 -6 -112 -16 -117 -21 -11 -11 6 -165 27 -238 28 -97 108 -174 213 -205 43 -13 72 -40 72 -69 0 -9 -41 -34 -113 -66 -133 -61 -188 -78 -234 -69 -32 6 -33 7 -33 56 0 33 -5 51 -14 55 -8 3 -63 2 -122 -3 l-109 -8 4 -75 c4 -98 23 -141 82 -194 60 -54 129 -79 219 -78 88 0 132 13 281 82 249 117 247 117 414 -124 80 -116 168 -204 242 -243 l53 -28 0 -191 0 -191 -74 -13 c-113 -19 -200 -11 -277 27 -123 62 -115 45 -150 308 -17 127 -35 234 -39 239 -12 12 -217 -13 -229 -28 -5 -6 3 -93 18 -211 15 -110 27 -201 26 -203 -6 -8 -123 26 -199 59 -50 22 -93 36 -96 32 -4 -5 -23 -46 -44 -93 -40 -89 -135 -272 -158 -303 -13 -18 -15 -18 -46 0 -27 15 -32 24 -32 57 0 58 -35 121 -86 157 -40 27 -44 34 -44 72 0 39 5 48 58 98 70 69 129 109 227 156 41 19 75 36 75 38 0 9 -101 215 -105 215 -17 0 -198 -98 -243 -132 -43 -32 -56 -37 -68 -28 -19 17 -18 50 6 101 27 59 25 111 -6 200 -20 56 -27 94 -27 154 0 100 12 146 71 265 47 93 47 95 47 196 1 101 1 102 34 140 52 58 85 115 121 206 18 46 42 96 53 112 26 36 73 56 137 56 85 0 126 31 179 137 37 74 59 91 139 103 55 9 66 8 115 -14 69 -30 82 -58 74 -162 -9 -116 6 -181 69 -302 l55 -107 -15 -41 c-30 -86 -33 -82 87 -120 60 -19 113 -32 118 -29 5 4 18 38 30 76 34 113 26 173 -45 313 l-59 115 7 81 c11 119 -6 187 -69 283 l-17 27 53 0 c30 0 67 -7 82 -15z m-1878 -1465 l80 -80 -80 -80 -80 -80 -82 82 -83 83 77 77 c43 43 80 78 83 78 3 0 41 -36 85 -80z m4700 0 l80 -80 -80 -80 -80 -80 -82 82 -83 83 77 77 c43 43 80 78 83 78 3 0 41 -36 85 -80z m280 -655 c75 -137 142 -255 148 -262 7 -6 125 -73 262 -147 138 -75 250 -141 250 -146 0 -5 -116 -74 -259 -152 l-258 -143 -139 -254 c-76 -140 -142 -258 -146 -262 -5 -4 -72 111 -151 256 l-143 263 -264 144 c-146 79 -264 145 -264 148 0 3 118 68 262 146 l262 141 145 266 c80 146 148 262 152 259 4 -4 68 -119 143 -257z m-5264 -287 c57 -105 111 -199 119 -209 8 -9 104 -66 212 -125 109 -59 195 -110 193 -114 -3 -4 -95 -56 -205 -115 l-200 -108 -101 -186 c-56 -102 -108 -197 -116 -210 -14 -22 -18 -17 -128 185 l-114 209 -203 110 c-111 60 -200 115 -198 120 2 6 94 60 203 120 l199 110 111 203 c61 111 114 202 117 202 4 0 54 -86 111 -192z m1721 58 c99 -4 109 -6 150 -34 127 -87 234 -117 383 -108 55 3 112 9 128 12 26 6 27 5 27 -34 0 -33 -6 -45 -35 -71 -74 -65 -108 -76 -236 -76 l-115 0 -83 43 c-131 69 -158 68 -368 -12 -34 -13 -52 -14 -100 -5 -32 6 -70 17 -85 25 l-27 14 47 78 c26 43 60 105 76 139 l28 61 52 -15 c28 -8 99 -16 158 -17z m1927 -144 c33 -56 61 -103 61 -106 0 -2 -23 -12 -51 -21 -78 -26 -133 -22 -224 16 -62 26 -95 33 -146 34 -60 0 -75 -4 -150 -45 l-84 -45 -120 0 c-134 0 -160 8 -234 71 -35 31 -41 41 -41 75 l0 39 43 -7 c23 -5 92 -8 152 -8 134 0 190 16 304 85 l84 50 106 5 c58 2 128 10 156 18 l50 13 16 -36 c9 -20 44 -82 78 -138z m-928 -388 c24 -9 79 -21 121 -28 l77 -11 -122 -195 c-67 -108 -162 -266 -212 -353 -49 -86 -93 -157 -97 -157 -4 0 -17 19 -29 42 -29 57 -236 408 -316 535 -35 57 -66 109 -69 116 -4 11 17 15 98 20 124 6 198 31 295 97 l68 46 70 -48 c39 -26 91 -55 116 -64z m662 34 c66 -30 80 -33 167 -32 75 0 111 6 170 26 l75 26 47 -26 c27 -15 48 -30 48 -34 0 -4 -57 -71 -127 -150 -451 -507 -954 -1243 -1246 -1824 -20 -40 -47 -87 -59 -106 -13 -18 -65 -123 -117 -233 l-94 -200 -144 0 c-78 0 -143 3 -143 7 0 5 25 79 56 165 215 609 571 1319 1020 2038 215 343 236 375 257 375 10 0 51 -15 90 -32z m-1893 -35 c75 -4 94 -2 158 22 41 15 75 25 77 23 32 -36 372 -600 513 -851 l112 -198 -91 -174 c-50 -96 -92 -175 -93 -175 -2 0 -24 32 -50 70 -210 317 -529 710 -855 1055 l-151 159 23 24 c12 14 48 42 79 62 l58 38 67 -25 c44 -17 98 -27 153 -30z m2652 -274 c91 -133 90 -113 11 -217 -87 -115 -180 -270 -246 -412 -48 -104 -53 -110 -80 -110 -36 0 -89 -31 -112 -67 -20 -29 -74 -311 -101 -524 l-17 -136 -36 -24 c-89 -60 -243 -190 -335 -284 -125 -126 -190 -206 -294 -359 -80 -117 -82 -119 -159 -157 -43 -21 -106 -64 -140 -94 l-61 -55 -51 48 -50 47 127 260 c370 752 795 1405 1280 1970 126 146 184 206 197 202 5 -2 36 -41 67 -88z m-3021 -156 c217 -233 453 -517 636 -764 90 -123 275 -398 280 -419 2 -9 -29 -95 -70 -191 -75 -174 -181 -452 -232 -606 -14 -46 -29 -83 -31 -83 -7 0 -206 101 -230 117 -22 14 -22 15 -6 51 14 31 17 71 16 242 0 247 -24 463 -96 880 -21 122 -22 126 -63 168 -37 37 -48 42 -86 42 -65 0 -106 -33 -158 -126 -25 -44 -55 -96 -68 -117 l-23 -37 -51 40 c-104 82 -218 120 -359 120 -44 0 -80 3 -80 6 0 25 446 844 460 844 3 0 76 -75 161 -167z m3348 -461 c67 -139 121 -254 121 -257 0 -3 -35 -5 -77 -5 -138 0 -254 -40 -357 -121 -26 -21 -52 -37 -56 -34 -5 3 -20 25 -34 49 l-26 44 25 66 c35 93 104 239 155 326 39 69 122 190 127 186 1 -1 56 -115 122 -254z m1104 -40 l77 -77 -83 -83 -82 -82 -80 80 -80 80 80 80 c44 44 82 80 85 80 3 0 40 -35 83 -78z m-5878 -392 c-44 -44 -83 -80 -86 -80 -4 0 -40 36 -80 81 l-72 80 79 80 79 79 80 -80 80 -80 -80 -80z m994 -49 c61 -19 171 -93 171 -114 0 -6 -52 -100 -116 -210 -64 -109 -122 -214 -130 -233 -39 -92 5 -178 150 -293 130 -104 448 -293 787 -469 l177 -92 198 15 c263 19 326 10 420 -62 50 -38 96 -134 102 -214 4 -53 1 -74 -12 -94 -26 -39 -51 -44 -161 -29 -247 32 -629 140 -1055 297 -630 232 -881 361 -1103 566 l-48 45 7 55 c21 177 102 423 233 703 45 97 58 107 176 133 85 19 134 18 204 -4z m3989 -44 l47 -12 57 -125 c108 -235 175 -438 203 -614 l13 -80 -27 -32 c-39 -48 -165 -150 -259 -212 -121 -79 -330 -176 -657 -305 -568 -225 -937 -340 -1209 -378 -63 -8 -80 -7 -105 6 -37 19 -45 46 -39 134 9 119 76 211 183 252 60 23 172 25 405 8 l155 -12 180 108 c461 277 775 507 820 601 23 48 21 123 -4 172 -10 20 -62 111 -115 201 -92 156 -96 165 -81 187 29 45 137 104 215 118 36 6 163 -4 218 -17z m-3468 -247 c13 -99 24 -249 27 -374 l6 -210 -49 29 c-76 44 -265 170 -303 203 l-35 29 160 271 c142 244 160 269 166 245 4 -16 16 -102 28 -193z m2852 -70 l149 -255 -33 -28 c-57 -49 -318 -232 -330 -232 -7 0 -15 11 -19 25 -19 69 -2 381 36 647 20 135 23 144 37 118 7 -11 79 -135 160 -275z m-454 -613 l21 -47 -42 -27 c-23 -15 -75 -46 -116 -71 l-74 -43 -123 7 c-68 4 -124 9 -124 11 0 3 21 32 47 66 93 122 210 251 293 324 l85 73 6 -122 c4 -95 10 -134 27 -171z m-3393 -341 c189 -125 385 -214 885 -401 575 -215 1144 -360 1309 -334 29 4 78 22 108 39 l55 32 61 -33 c102 -54 197 -52 477 11 473 106 1446 489 1745 688 l90 59 70 -19 c106 -29 208 -75 252 -113 91 -78 125 -275 71 -410 -22 -55 -69 -115 -121 -154 -63 -48 -351 -192 -462 -232 -263 -93 -568 -141 -1000 -157 l-190 -7 0 -115 0 -115 265 1 c338 2 580 33 839 108 59 17 81 20 77 11 -2 -7 -7 -46 -11 -86 -15 -180 -35 -206 -149 -194 -34 4 -174 -1 -312 -10 -283 -20 -515 -16 -639 10 -44 9 -135 39 -203 66 -68 27 -154 57 -190 65 -117 27 -383 44 -709 44 -481 0 -681 -21 -856 -91 -169 -68 -207 -80 -317 -94 -137 -19 -306 -19 -576 1 -124 9 -254 13 -300 9 -127 -10 -135 2 -158 236 l-6 57 58 -18 c234 -73 534 -113 862 -114 l245 -1 3 113 c2 85 0 113 -10 116 -7 2 -130 9 -273 15 -375 15 -578 47 -845 133 -151 49 -399 167 -496 236 -123 88 -170 186 -162 343 4 76 9 98 39 156 44 86 85 115 249 170 69 23 127 41 130 40 3 -1 46 -29 95 -61z"/>
</g>
</svg>
