<?xml version="1.0" standalone="no"?>
<!DOCTYPE svg PUBLIC "-//W3C//DTD SVG 20010904//EN" "http://www.w3.org/TR/2001/REC-SVG-20010904/DTD/svg10.dtd">
<svg xmlns="http://www.w3.org/2000/svg" version="1.0" width="100%" height="100%" viewBox="0 0 756.000000 748.000000" preserveAspectRatio="xMidYMid meet">
<metadata>
Created by potrace 1.16, written by Peter Selinger 2001-2019
<meta name="Producer" content="Online-Convert"/></metadata>
<g transform="translate(0.000000,748.000000) scale(0.100000,-0.100000)" stroke="none">
<path d="M0 3740 l0 -3740 3780 0 3780 0 0 3740 0 3740 -3780 0 -3780 0 0 -3740z m3755 3171 c142 -53 260 -134 343 -234 232 -283 220 -709 -28 -979 -220 -240 -579 -307 -875 -163 -194 94 -315 236 -387 450 -20 61 -23 89 -22 220 0 133 3 158 26 227 40 120 92 204 182 294 130 128 276 199 436 212 119 9 260 -3 325 -27z m-1532 -123 c155 -69 182 -94 173 -156 -5 -32 -3 -33 67 -68 86 -44 96 -56 97 -112 0 -54 -35 -92 -87 -92 -38 0 -297 125 -326 158 -10 10 -19 37 -20 58 -2 37 -5 41 -57 67 -30 15 -63 37 -72 48 -20 23 -24 80 -8 109 11 21 56 49 79 50 8 0 77 -28 154 -62z m2794 52 c52 -19 70 -95 34 -142 -11 -14 -47 -37 -79 -52 -49 -21 -59 -30 -55 -45 3 -11 0 -36 -7 -56 -11 -33 -22 -41 -161 -110 -95 -48 -160 -75 -181 -75 -50 1 -79 29 -85 81 -7 57 11 80 102 127 65 34 70 39 68 67 -5 61 14 85 106 128 194 90 208 94 258 77z m-2733 -719 c14 -13 26 -33 28 -45 3 -19 11 -21 101 -26 93 -5 100 -7 123 -33 33 -39 33 -99 -1 -132 -24 -25 -26 -25 -207 -25 -204 0 -221 5 -236 63 l-8 32 -83 5 c-72 4 -85 8 -102 29 -40 50 -22 127 36 152 11 5 88 7 172 6 144 -2 153 -3 177 -26z m2825 18 c64 -23 79 -116 24 -159 -20 -16 -40 -20 -95 -20 l-69 0 -14 -34 c-26 -62 -40 -66 -232 -66 -105 0 -182 4 -196 11 -42 19 -60 86 -36 131 17 31 71 48 154 48 76 0 76 0 87 31 20 57 56 69 209 69 75 0 150 -5 168 -11z m1756 -418 c91 -41 104 -82 105 -319 0 -137 -4 -191 -14 -217 -13 -30 -13 -38 -1 -62 21 -40 21 -389 1 -438 -13 -30 -13 -38 -1 -62 21 -40 21 -389 1 -438 -13 -31 -13 -39 0 -70 10 -24 14 -74 14 -171 0 -126 -1 -136 -17 -129 -41 17 -136 45 -154 45 -16 0 -19 10 -21 98 l-3 97 -650 0 -650 0 -3 -97 c-3 -96 -3 -98 -27 -98 -27 0 -26 -5 -55 195 -11 77 -23 152 -26 167 l-6 28 509 2 508 3 0 150 0 150 -531 3 -530 2 -14 93 c-7 50 -16 162 -19 247 l-6 155 -40 3 c-34 3 -49 13 -99 64 -65 67 -137 116 -208 143 l-48 18 0 154 c0 199 16 244 105 284 38 18 88 19 940 19 852 0 902 -1 940 -19z m-2859 -437 c29 -60 53 -68 461 -143 286 -52 394 -76 431 -95 57 -29 117 -92 143 -152 13 -29 42 -201 89 -530 39 -268 70 -494 70 -501 0 -10 -23 -13 -93 -13 l-93 0 -68 458 c-37 251 -72 471 -77 488 -5 17 -24 45 -42 62 -32 31 -39 33 -417 102 -421 78 -463 91 -526 163 -51 60 -97 167 -72 167 7 0 47 15 88 34 72 31 75 32 83 13 4 -11 15 -35 23 -53z m-851 31 c44 -19 81 -39 83 -44 4 -12 -41 -108 -66 -138 l-17 -23 -55 21 c-45 17 -86 23 -225 28 l-170 6 126 23 c150 28 183 45 212 112 12 27 24 50 27 50 3 0 41 -16 85 -35z m455 -117 c22 -76 71 -160 125 -217 l52 -56 40 -362 c22 -200 38 -375 35 -390 -6 -35 -249 -285 -299 -308 -45 -22 -83 -9 -140 47 l-43 42 0 376 c0 442 -7 494 -77 602 -17 27 -17 28 14 60 44 46 87 118 113 188 l22 60 73 0 72 0 13 -42z m-523 -294 c21 -16 47 -48 58 -70 19 -37 20 -62 23 -511 l3 -473 -1051 0 -1051 0 3 478 3 477 27 46 c19 32 41 53 70 68 l43 21 917 -2 916 -3 39 -31z m3800 -1296 c24 -16 49 -44 62 -70 20 -42 21 -60 21 -289 0 -215 -3 -249 -19 -284 -22 -50 -69 -91 -119 -105 -51 -14 -6062 -14 -6113 0 -54 15 -100 50 -123 95 -20 38 -21 56 -21 295 0 224 2 259 18 287 19 36 76 85 109 95 13 3 1400 5 3084 5 l3060 -2 41 -27z m-519 -1865 l-3 -898 -28 -59 c-54 -115 -136 -188 -247 -220 -50 -15 -277 -16 -2340 -14 l-2285 3 -67 32 c-115 54 -193 158 -217 288 -7 39 -11 340 -11 912 l0 853 2600 0 2601 0 -3 -897z"/>
<path d="M5074 5547 c-2 -7 -3 -78 -2 -157 l3 -145 650 0 650 0 0 155 0 155 -648 3 c-525 2 -649 0 -653 -11z"/>
<path d="M5474 5047 c-2 -7 -3 -78 -2 -157 l3 -145 650 0 650 0 0 155 0 155 -648 3 c-525 2 -649 0 -653 -11z"/>
<path d="M2075 4600 c-53 -8 -92 -30 -136 -77 -56 -58 -73 -99 -73 -173 0 -168 160 -292 317 -246 110 32 189 134 188 245 0 69 -16 114 -60 164 -62 70 -144 100 -236 87z"/>
<path d="M2052 2366 l-37 -34 0 -187 0 -187 37 -34 38 -34 1685 0 1685 0 32 29 33 29 3 177 c4 191 -2 221 -46 255 -24 20 -50 20 -1708 20 l-1684 0 -38 -34z"/>
<path d="M2052 1466 l-37 -34 0 -187 0 -187 37 -34 38 -34 1685 0 1685 0 32 29 33 29 3 177 c4 191 -2 221 -46 255 -24 20 -50 20 -1708 20 l-1684 0 -38 -34z"/>
</g>
</svg>
