<?xml version="1.0" standalone="no"?>
<!DOCTYPE svg PUBLIC "-//W3C//DTD SVG 20010904//EN" "http://www.w3.org/TR/2001/REC-SVG-20010904/DTD/svg10.dtd">
<svg xmlns="http://www.w3.org/2000/svg" version="1.0" width="100%" height="100%" viewBox="0 0 720.000000 723.000000" preserveAspectRatio="xMidYMid meet">
<metadata>
Created by potrace 1.16, written by Peter Selinger 2001-2019
<meta name="Producer" content="Online-Convert"/></metadata>
<g transform="translate(0.000000,723.000000) scale(0.100000,-0.100000)" stroke="none">
<path d="M0 3615 l0 -3615 3600 0 3600 0 0 3615 0 3615 -3600 0 -3600 0 0 -3615z m6786 3276 c55 -25 87 -71 91 -135 6 -78 -190 -1357 -214 -1399 -39 -66 -118 -97 -195 -77 -36 10 -70 39 -208 176 l-165 164 -680 -680 c-619 -618 -686 -681 -744 -709 -108 -51 -213 -51 -319 1 -24 11 -122 94 -218 183 l-175 162 -173 -176 c-95 -97 -376 -383 -623 -636 -514 -526 -503 -518 -652 -523 -70 -3 -97 0 -146 18 -54 20 -79 41 -232 193 l-171 170 -601 -590 c-643 -631 -643 -631 -766 -654 -274 -50 -486 249 -360 507 21 43 157 182 771 783 848 831 794 786 954 786 150 0 165 -9 363 -204 l167 -165 93 92 c50 51 322 328 602 615 281 288 528 537 550 554 62 48 128 68 220 68 124 0 172 -29 380 -225 l170 -160 545 545 545 545 -157 157 c-86 87 -163 172 -172 190 -23 46 -20 117 6 164 39 70 44 71 733 174 347 51 641 96 655 98 53 9 86 6 126 -12z m-425 -2810 c74 -35 125 -86 161 -159 l33 -67 0 -1690 0 -1690 -33 -67 c-60 -122 -162 -182 -307 -182 -142 0 -255 66 -312 182 l-28 57 -3 1688 -2 1688 23 59 c29 71 58 108 117 148 73 51 114 62 215 59 68 -3 101 -9 136 -26z m-1410 -713 c108 -54 170 -140 189 -265 7 -46 10 -485 8 -1338 l-3 -1270 -23 -56 c-67 -168 -254 -255 -428 -200 -87 27 -140 64 -182 125 -66 99 -63 16 -60 1472 l3 1319 32 60 c38 72 81 115 148 148 75 37 73 37 170 34 75 -2 99 -7 146 -29z m-1451 -693 c103 -34 197 -140 220 -249 7 -35 10 -355 8 -996 l-3 -945 -28 -60 c-36 -78 -95 -137 -171 -172 -52 -24 -74 -28 -146 -28 -74 0 -93 4 -150 31 -82 39 -124 81 -164 164 l-31 65 0 975 0 975 26 56 c80 169 256 243 439 184z m-1387 -723 c76 -36 128 -88 165 -161 l27 -56 3 -609 c3 -671 3 -665 -59 -760 -60 -91 -196 -154 -308 -143 -139 13 -254 94 -302 212 l-24 60 0 610 0 610 23 56 c75 187 290 269 475 181z m-1416 -709 c69 -32 131 -92 161 -155 35 -75 45 -173 40 -393 -5 -178 -8 -207 -28 -260 -62 -162 -254 -250 -426 -196 -87 27 -140 64 -181 125 -57 84 -63 122 -63 393 0 266 5 297 66 385 87 125 284 171 431 101z"/>
</g>
</svg>
