<svg version="1.1" id="svg1" xml:space="preserve" xmlns="http://www.w3.org/2000/svg" xmlns:svg="http://www.w3.org/2000/svg" viewBox="4.5 120.85 194.95 65.67"><defs id="defs1"/><g id="layer1"><g style="clip-rule:evenodd;fill-rule:evenodd;stroke-linejoin:round;stroke-miterlimit:2" id="g1" transform="matrix(4.2137052,0,0,4.2137052,19.250363,117.34089)"><g id="g4"><ellipse cx="7.2160573" cy="3.8359652" rx="2.5409999" ry="2.4530001" style="fill:#9797f6" id="ellipse1"/><ellipse cx="0.87105757" cy="3.2909656" rx="2.5409999" ry="2.4530001"  id="ellipse2"/><path d="m -0.90294292,6.6279656 c 0.701,0.514 1.846,1.61 4.17900002,1.61 1.804,0 2.7340001,-0.437 2.7340001,-0.815 0,-0.28 -1.0100001,-1.471 -2.1760001,-1.471 h -0.58 c -0.11,0 -0.218,0.024 -0.317,0.07 -0.392,0.176 -1.464,0.606 -2.47800002,0.606 -0.348,0 -0.64,-0.172 -1.162,-0.424 -0.30499998,-0.093 -0.59099998,0.138 -0.2,0.424 z"  id="path2"/><path d="m 8.8880571,6.8459656 c 0,0 0.332,-0.038 0.491,-0.038 1.3379999,0 2.3139999,0.908 2.5779999,1.919 0.295,1.1340002 0.105,3.6200004 -0.806,4.8840004 -0.911,1.264 -2.8949999,2.354 -4.6579999,2.7 -1.72,0.242 -1.676,0 -1.6,-0.241 0.141,-0.179 0.359,-0.631 0.468,-1.251 0.043,-0.514 -0.208,-0.935 -0.208,-0.935 -0.209,-0.39 0.164,-0.578 0.4040001,-0.588 0.6639999,-0.063 1.8719999,-0.368 2.4809999,-0.746 0.49,-0.399 0,-0.756 -0.272,-0.704 -0.598,0.2 -0.849,0.399 -2.613,0.704 -2.596,0.357 -4.73400002,-0.69 -6.07500002,-1.663 -0.61899998,-0.448 -1.17099998,-0.9820002 -1.63899998,-1.5860004 -0.535,-0.672 -0.9270001,-1.315 -0.9270001,-1.857 0,0 0,0 0,0 0.008,-0.68 0.5520001,-1.009 1.1400001,-1.012 0.406,-0.003 0.793,0.172 1.058,0.479 0.87399998,0.999 2.16999998,1.837 3.69,2.109 2.732,0.252 4.082,-0.778 4.844,-1.376 0.468,-0.62 1.644,-0.798 1.644,-0.798 z" style="fill:#9797f6" id="path3"/><path d="m -2.4619429,10.788966 c 0,0 0.601,2.177 2.15099998,3.479 1.55000002,1.303 3.19600002,1.908 3.94400002,1.942 0.375,-0.084 0.531,-0.311 0.61,-0.773 0.078,-0.463 0.078,-1.572 -0.079,-1.959 -0.983,-0.084 -2.298,-0.134 -3.55200002,-0.832 -1.254,-0.697 -1.87199998,-1.025 -2.68199998,-2.042 -0.096,-0.143 -0.165,-0.168 -0.279,-0.143 -0.104,0.042 -0.151,0.218 -0.113,0.328 z"  id="path4"/></g></g><text xml:space="preserve" style="font-size:21.5666px;line-height:0;text-align:start;writing-mode:lr-tb;direction:ltr;text-anchor:start;opacity:1;fill-opacity:1;stroke:#ff00ff;stroke-width:0;stroke-linecap:round;stroke-dasharray:none;paint-order:markers stroke fill" x="119.15051" y="153.88106" id="text1"><tspan style="font-style:normal;font-variant:normal;font-weight:bold;font-stretch:normal;font-size:20.4611px;line-height:0.9;font-family:sans-serif;-inkscape-font-specification:'sans-serif Bold';text-align:center;writing-mode:lr-tb;text-anchor:middle;fill-opacity:1;stroke-width:0;stroke-dasharray:none" x="139.15051" y="153.88106" id="tspan2">Contigo Voy</tspan><tspan style="font-style:normal;font-variant:normal;font-weight:normal;font-stretch:normal;font-size:11.9944px;line-height:1.2;font-family:sans-serif;-inkscape-font-specification:sans-serif;text-align:center;writing-mode:lr-tb;text-anchor:middle;fill-opacity:1;stroke-width:0;stroke-dasharray:none" x="139.15051" y="167.85245" id="tspan3">Centro Psicológico</tspan></text></g></svg>