<svg version="1.1" id="svg1" xml:space="preserve" xmlns="http://www.w3.org/2000/svg" xmlns:svg="http://www.w3.org/2000/svg" viewBox="19.25 115.68 156.63 65.68"><defs id="defs1"/><g id="layer1"><g style="clip-rule:evenodd;fill-rule:evenodd;stroke-linejoin:round;stroke-miterlimit:2" id="g1" transform="matrix(4.2137052,0,0,4.2137052,19.250363,115.68943)"><g id="g4"><ellipse cx="10.704" cy="2.9979999" rx="2.5409999" ry="2.4530001" style="fill:#9797f6" id="ellipse1"/><ellipse cx="4.3590002" cy="2.4530001" rx="2.5409999" ry="2.4530001" style="fill:#5d4bdd" id="ellipse2"/><path d="M 2.585,5.79 C 3.286,6.304 4.431,7.4 6.764,7.4 8.568,7.4 9.498,6.963 9.498,6.585 9.498,6.305 8.488,5.114 7.322,5.114 h -0.58 c -0.11,0 -0.218,0.024 -0.317,0.07 C 6.033,5.36 4.961,5.79 3.947,5.79 3.599,5.79 3.307,5.618 2.785,5.366 2.48,5.273 2.194,5.504 2.585,5.79 Z" style="fill:#5d4bdd" id="path2"/><path d="m 12.376,6.008 c 0,0 0.332,-0.038 0.491,-0.038 1.338,0 2.314,0.908 2.578,1.919 0.295,1.134 0.105,3.62 -0.806,4.884 -0.911,1.264 -2.895,2.354 -4.658,2.7 -1.72,0.242 -1.676,0 -1.6,-0.241 0.141,-0.179 0.359,-0.631 0.468,-1.251 0.043,-0.514 -0.208,-0.935 -0.208,-0.935 -0.209,-0.39 0.164,-0.578 0.404,-0.588 0.664,-0.063 1.872,-0.368 2.481,-0.746 0.49,-0.399 0,-0.756 -0.272,-0.704 -0.598,0.2 -0.849,0.399 -2.613,0.704 C 6.045,12.069 3.907,11.022 2.566,10.049 1.947,9.601 1.395,9.067 0.927,8.463 0.392,7.791 0,7.148 0,6.606 c 0,0 0,0 0,0 C 0.008,5.926 0.552,5.597 1.14,5.594 1.546,5.591 1.933,5.766 2.198,6.073 3.072,7.072 4.368,7.91 5.888,8.182 8.62,8.434 9.97,7.404 10.732,6.806 11.2,6.186 12.376,6.008 12.376,6.008 Z" style="fill:#9797f6" id="path3"/><path d="m 1.026,9.951 c 0,0 0.601,2.177 2.151,3.479 1.55,1.303 3.196,1.908 3.944,1.942 0.375,-0.084 0.531,-0.311 0.61,-0.773 C 7.809,14.136 7.809,13.027 7.652,12.64 6.669,12.556 5.354,12.506 4.1,11.808 2.846,11.111 2.228,10.783 1.418,9.766 1.322,9.623 1.253,9.598 1.139,9.623 1.035,9.665 0.988,9.841 1.026,9.951 Z" style="fill:#5d4bdd" id="path4"/></g></g><text xml:space="preserve" style="font-size:21.5666px;text-align:start;writing-mode:lr-tb;direction:ltr;text-anchor:start;opacity:0.676845;fill:#5d4bdd;fill-opacity:1;stroke:#ff00ff;stroke-width:0;stroke-linecap:round;stroke-dasharray:none;paint-order:markers stroke fill" x="87.638336" y="142.63184" id="text1"><tspan id="tspan1" style="font-style:normal;font-variant:normal;font-weight:bold;font-stretch:normal;font-family:sans-serif;-inkscape-font-specification:'sans-serif Bold';fill:#5d4bdd;fill-opacity:1;stroke-width:0;stroke-dasharray:none" x="85.38336" y="142.63184">Contigo </tspan><tspan style="font-style:normal;font-variant:normal;font-weight:bold;font-stretch:normal;font-family:sans-serif;-inkscape-font-specification:'sans-serif Bold';fill:#5d4bdd;fill-opacity:1;stroke-width:0;stroke-dasharray:none" x="87.638336" y="169.59009" id="tspan2">Voy</tspan></text></g></svg>