<?xml version="1.0" encoding="iso-8859-1"?>
<!-- Uploaded to: SVG Repo, www.svgrepo.com, Generator: SVG Repo Mixer Tools -->
<!DOCTYPE svg PUBLIC "-//W3C//DTD SVG 1.1//EN" "http://www.w3.org/Graphics/SVG/1.1/DTD/svg11.dtd">
<svg fill="#000000" version="1.1" id="Capa_1" xmlns="http://www.w3.org/2000/svg" xmlns:xlink="http://www.w3.org/1999/xlink" 
	 width="100%" height="100%" viewBox="0 0 176.956 176.955"
	 xml:space="preserve">
<g>
	<g>
		<path d="M33.105,90.496c8.825,20.596,8.461,45.25-22.068,86.459c18.285-7.116,42.241-11.809,50.401-38.632
			c4.968,5.935,12.504,11.035,19.638,11.502c-15.622-15.752-7.578-22.479-20.699-39.247C53.581,101.906,44.634,94.134,33.105,90.496
			z"/>
		<circle cx="60.765" cy="87.548" r="14.714"/>
		<path d="M143.84,90.496c-11.531,3.638-20.475,11.41-27.26,20.082c-13.122,16.769-5.084,23.495-20.7,39.247
			c7.129-0.467,14.671-5.567,19.636-11.502c8.157,26.823,32.107,31.516,50.401,38.632
			C135.382,135.746,135.022,111.092,143.84,90.496z"/>
		<path d="M130.21,19.522c-2.447-23.744-28.963-23.38-41.736-11.91C75.699-3.857,49.207-4.221,46.736,19.522
			C43.577,50.09,88.475,73.771,88.475,73.771S133.373,50.09,130.21,19.522z"/>
		<path d="M40.846,58.055c0,0,9.499-15.096,3.159-23.841c-4.92-6.798-12.915-2.021-14.786,3.709
			c-5.902-1.247-14.029,3.298-10.604,10.955C23.022,58.731,40.846,58.055,40.846,58.055z"/>
		<path d="M158.333,48.878c3.429-7.657-4.704-12.202-10.604-10.955c-1.868-5.73-9.871-10.501-14.789-3.709
			c-6.336,8.745,3.163,23.841,3.163,23.841S153.924,58.731,158.333,48.878z"/>
		<path d="M139.704,81.175c-2.625-1.49-8.843-2.743-12.597-3.402c-2.688-3.008-6.561-4.938-10.923-4.938
			c-8.127,0-14.712,6.584-14.712,14.721c0,8.121,6.585,14.706,14.712,14.706s14.712-6.579,14.712-14.706
			c0-1.023-0.106-2.016-0.302-2.979c1.744,1.756,3.5,3.366,4.83,4.123c3.877,2.189,1.471-1.398,2.647-3.47
			C139.243,83.149,143.581,83.379,139.704,81.175z"/>
	</g>
</g>
</svg>