<?xml version="1.0" encoding="iso-8859-1"?>
<!-- Uploaded to: SVG Repo, www.svgrepo.com, Generator: SVG Repo Mixer Tools -->
<svg version="1.1" id="Capa_1" xmlns="http://www.w3.org/2000/svg" xmlns:xlink="http://www.w3.org/1999/xlink" 
	 viewBox="0 0 49.119 49.119" xml:space="preserve" width="100%" height="100%">
<g>
	<g>
		<circle  cx="45.056" cy="16.783" r="4.063"/>
		<path  d="M9.325,33.131c4.17-2.039,8.34-4.076,12.511-6.115c1.361,2.027,3.799,2.242,5.836,1.195
			c2.48-1.274,4.963-2.55,7.441-3.824c0.104,2.33,0.204,4.662,0.305,6.992c0.129,2.924,4.662,2.727,4.533-0.197
			c-0.137-3.146-0.272-6.292-0.41-9.437c1.051-1.38,1.08-3.542,0.168-4.954c-1.353-2.089-3.822-2.319-5.885-1.261
			c-3.592,1.846-7.184,3.691-10.774,5.536c-0.409,0.21-0.748,0.5-1.024,0.839c-5.053,2.47-10.105,4.94-15.159,7.411
			C4.243,30.597,6.724,34.401,9.325,33.131z"/>
		<rect x="0" y="33.772" width="48.483" height="2.627"/>
	</g>
</g>
</svg>