<?xml version="1.0" encoding="iso-8859-1"?>
<!-- Uploaded to: SVG Repo, www.svgrepo.com, Generator: SVG Repo Mixer Tools -->
<!DOCTYPE svg PUBLIC "-//W3C//DTD SVG 1.1//EN" "http://www.w3.org/Graphics/SVG/1.1/DTD/svg11.dtd">
<svg fill="#000000" version="1.1" id="Capa_1" xmlns="http://www.w3.org/2000/svg" xmlns:xlink="http://www.w3.org/1999/xlink" 
	 width="100%" height="100%" viewBox="0 0 256.279 256.279"
	 xml:space="preserve">
<g>
	<path d="M86.273,228.785h18.158v14.15H86.273V228.785z M256.279,117.624L149.424,13.343l-12.685,12.989l23.194,22.636
		L137.413,71.23V60.239H53.292v20.936H0v128.536h74.354v-18.158H18.158V99.327h53.292V78.392h47.806v20.936h53.292v92.226h-52.925
		c12.797-8.086,21.326-22.33,21.326-38.55c0-25.15-20.454-45.602-45.596-45.602s-45.596,20.451-45.596,45.602h18.158
		c0-15.132,12.306-27.443,27.438-27.443c15.131,0,27.438,12.312,27.438,27.443s-12.306,27.438-27.438,27.438h-9.079v39.897h18.158
		v-10.627h86.273v-71.964l29.412-30.044l14.445,14.097v44.562h6.053v-38.662l2.974,2.902L256.279,117.624z"/>
</g>
</svg>